<svg width="69" height="57" viewBox="0 0 69 57" fill="none" xmlns="http://www.w3.org/2000/svg">
<path d="M37.4154 51.8345H13.9748C10.2898 51.8345 7.29043 49.3568 7.29043 46.3126V16.8151C7.29043 13.7709 10.2898 11.2932 13.9748 11.2932H18.2744C18.2571 11.4108 18.2183 11.5283 18.214 11.6459C18.186 12.4172 18.4792 13.1742 19.0657 13.8048C19.8484 14.642 21.0301 15.1229 22.3109 15.1229H40.3005C41.5813 15.1229 42.7651 14.642 43.5456 13.8048C44.1321 13.176 44.4254 12.4172 44.3973 11.6459C44.393 11.5283 44.3542 11.4108 44.3348 11.2932H48.6257C52.3108 11.2932 55.3101 13.7709 55.3101 16.8151V29.2126C55.3101 30.0979 56.1791 30.8157 57.2507 30.8157C58.3224 30.8157 59.1914 30.0979 59.1914 29.2126V16.8151C59.1914 12.0022 54.4519 8.08697 48.6257 8.08697H43.3688L42.8276 6.39657C41.5015 2.25694 35.4705 2.00935 31.3326 1.95947C27.1667 2.00935 21.1098 2.25872 19.7816 6.39657L19.2425 8.08697H13.9748C8.14862 8.08697 3.40918 12.0022 3.40918 16.8151V46.3126C3.40918 51.1255 8.14862 55.0407 13.9748 55.0407H37.4132C38.4849 55.0407 39.3539 54.3229 39.3539 53.4376C39.3539 52.5523 38.4871 51.8345 37.4154 51.8345ZM22.1017 11.6922L23.5356 7.21594C23.6068 6.9915 23.7383 6.792 23.8914 6.60675C24.2235 6.20954 24.7129 5.91028 25.3037 5.7945C27.3155 5.40085 29.3359 5.19066 31.3067 5.16572C33.2776 5.19066 35.2958 5.40085 37.3097 5.7945C37.9006 5.91028 38.39 6.20954 38.7221 6.60675C38.8752 6.792 39.0067 6.9915 39.0779 7.21594L40.5118 11.6922C40.5182 11.7136 40.5377 11.7777 40.473 11.8454L31.3089 11.881L22.1448 11.8454C22.0758 11.7777 22.0952 11.7154 22.1017 11.6922Z" fill="#6621BA"/>
<path d="M46.9824 28.9986C46.9824 28.1134 46.1135 27.3955 45.0418 27.3955H26.6339C25.5623 27.3955 24.6933 28.1134 24.6933 28.9986C24.6933 29.8839 25.5623 30.6018 26.6339 30.6018H45.0418C46.1135 30.6018 46.9824 29.8839 46.9824 28.9986ZM19.1862 27.3955H17.569C16.4974 27.3955 15.6284 28.1134 15.6284 28.9986C15.6284 29.8839 16.4974 30.6018 17.569 30.6018H19.1862C20.2579 30.6018 21.1269 29.8839 21.1269 28.9986C21.1269 28.1134 20.26 27.3955 19.1862 27.3955ZM26.6339 36.3552C25.5623 36.3552 24.6933 37.073 24.6933 37.9583C24.6933 38.8436 25.5623 39.5614 26.6339 39.5614H35.302C36.3737 39.5614 37.2427 38.8436 37.2427 37.9583C37.2427 37.073 36.3737 36.3552 35.302 36.3552H26.6339ZM19.1862 36.3552H17.569C16.4974 36.3552 15.6284 37.073 15.6284 37.9583C15.6284 38.8436 16.4974 39.5614 17.569 39.5614H19.1862C20.2579 39.5614 21.1269 38.8436 21.1269 37.9583C21.1269 37.073 20.26 36.3552 19.1862 36.3552Z" fill="#6621BA"/>
<path d="M61.7421 36.5158C56.621 32.2836 48.2849 32.2853 43.1638 36.5158C40.682 38.5642 39.3149 41.2913 39.3149 44.1894C39.3149 47.0875 40.682 49.8128 43.1638 51.8631C45.7255 53.9792 49.0892 55.0372 52.453 55.0372C55.8167 55.0372 59.1805 53.9792 61.7421 51.8631C66.8632 47.6308 66.8632 40.7463 61.7421 36.5158ZM58.9993 49.5955C55.3919 52.5756 49.5205 52.5773 45.9088 49.5955C44.16 48.1527 43.1983 46.2325 43.1983 44.1894C43.1983 42.1463 44.1622 40.2279 45.9088 38.7833C47.7135 37.2924 50.0833 36.5479 52.4551 36.5479C54.8248 36.5479 57.1946 37.2924 58.9993 38.7833C62.6068 41.7634 62.6068 46.6137 58.9993 49.5955Z" fill="#F98A17"/>
<path d="M56.287 42.586H54.396V41.0221C54.396 40.1368 53.527 39.4189 52.4554 39.4189C51.3837 39.4189 50.5148 40.1368 50.5148 41.0221V42.5842H48.6237C47.5521 42.5842 46.6831 43.3021 46.6831 44.1874C46.6831 45.0726 47.5521 45.7905 48.6237 45.7905H50.5148V47.3526C50.5148 48.2379 51.3837 48.9558 52.4554 48.9558C53.527 48.9558 54.396 48.2379 54.396 47.3526V45.7905H56.287C57.3587 45.7905 58.2277 45.0726 58.2277 44.1874C58.2277 43.3021 57.3587 42.586 56.287 42.586Z" fill="#F98A17"/>
</svg>
