<svg width="80" height="70" viewBox="0 0 80 70" fill="none" xmlns="http://www.w3.org/2000/svg">
<path d="M24.5275 15.9469C12.5175 15.9469 2.75 24.4934 2.75 35C2.75 45.5066 12.5175 54.0553 24.525 54.0553C36.5325 54.0553 46.3025 45.5066 46.3025 35C46.3025 24.4934 36.535 15.9469 24.5275 15.9469ZM15.3475 47.7837C17.575 45.3862 20.93 43.9381 24.525 43.9381C28.12 43.9381 31.475 45.3862 33.7025 47.7837C31.04 49.2516 27.8975 50.1156 24.525 50.1156C21.1525 50.1156 18.0125 49.2516 15.3475 47.7837ZM24.5275 39.9962C21.3775 39.9962 18.815 37.7562 18.815 35C18.815 32.2437 21.3775 30.0016 24.5275 30.0016C27.6775 30.0016 30.2375 32.2437 30.2375 35C30.2375 37.7562 27.675 39.9962 24.5275 39.9962ZM37.1625 45.2747C35.635 43.6384 33.7275 42.3369 31.58 41.4334C33.5175 39.8059 34.74 37.5287 34.74 34.9978C34.74 30.0716 30.16 26.0641 24.53 26.0641C18.9 26.0641 14.315 30.0737 14.315 35C14.315 37.5309 15.535 39.8081 17.475 41.4356C15.3275 42.3391 13.42 43.6406 11.8925 45.2769C9.02 42.5753 7.25 38.9703 7.25 35C7.25 26.6634 15 19.8822 24.5275 19.8822C34.055 19.8822 41.805 26.6634 41.805 35C41.8025 38.9703 40.0325 42.5753 37.1625 45.2747Z" fill="#6621BA"/>
<path d="M75 28.1509H52.3325C51.09 28.1509 50.0825 29.0325 50.0825 30.1197C50.0825 31.2069 51.09 32.0884 52.3325 32.0884H75C76.2425 32.0884 77.25 31.2069 77.25 30.1197C77.25 29.0325 76.2425 28.1509 75 28.1509ZM63.225 37.9116H52.34C51.0975 37.9116 50.09 38.7931 50.09 39.8803C50.09 40.9675 51.0975 41.8491 52.34 41.8491H63.225C64.4675 41.8491 65.475 40.9675 65.475 39.8803C65.475 38.7931 64.4675 37.9116 63.225 37.9116Z" fill="#F98A17"/>
</svg>
