<svg width="25" height="21" viewBox="0 0 25 21" fill="none" xmlns="http://www.w3.org/2000/svg">
<g clip-path="url(#clip0_29_12699)">
<path d="M2.67878 3.75C2.20518 3.75 1.75098 3.90804 1.41609 4.18934C1.0812 4.47064 0.893066 4.85218 0.893066 5.25V18.75C0.893066 19.1478 1.0812 19.5294 1.41609 19.8107C1.75098 20.092 2.20518 20.25 2.67878 20.25H22.3216C22.7952 20.25 23.2494 20.092 23.5843 19.8107C23.9192 19.5294 24.1074 19.1478 24.1074 18.75V5.25C24.1074 4.85218 23.9192 4.47064 23.5843 4.18934C23.2494 3.90804 22.7952 3.75 22.3216 3.75H18.7502" stroke="#000001" stroke-linecap="round" stroke-linejoin="round"/>
<path d="M6.25 0.75V6.75" stroke="#000001" stroke-linecap="round" stroke-linejoin="round"/>
<path d="M18.75 0.75V6.75" stroke="#000001" stroke-linecap="round" stroke-linejoin="round"/>
<path d="M6.25 3.75H15.1786" stroke="#000001" stroke-linecap="round" stroke-linejoin="round"/>
<path d="M6.25028 12C6.74339 12 7.14314 11.6642 7.14314 11.25C7.14314 10.8358 6.74339 10.5 6.25028 10.5C5.75717 10.5 5.35742 10.8358 5.35742 11.25C5.35742 11.6642 5.75717 12 6.25028 12Z" stroke="#000001" stroke-linecap="round" stroke-linejoin="round"/>
<path d="M12.5003 12C12.9934 12 13.3931 11.6642 13.3931 11.25C13.3931 10.8358 12.9934 10.5 12.5003 10.5C12.0072 10.5 11.6074 10.8358 11.6074 11.25C11.6074 11.6642 12.0072 12 12.5003 12Z" stroke="#000001" stroke-linecap="round" stroke-linejoin="round"/>
<path d="M18.7503 12C19.2434 12 19.6431 11.6642 19.6431 11.25C19.6431 10.8358 19.2434 10.5 18.7503 10.5C18.2572 10.5 17.8574 10.8358 17.8574 11.25C17.8574 11.6642 18.2572 12 18.7503 12Z" stroke="#000001" stroke-linecap="round" stroke-linejoin="round"/>
<path d="M6.25028 16.5C6.74339 16.5 7.14314 16.1642 7.14314 15.75C7.14314 15.3358 6.74339 15 6.25028 15C5.75717 15 5.35742 15.3358 5.35742 15.75C5.35742 16.1642 5.75717 16.5 6.25028 16.5Z" stroke="#000001" stroke-linecap="round" stroke-linejoin="round"/>
</g>
<defs>
<clipPath id="clip0_29_12699">
<rect width="25" height="21" fill="white"/>
</clipPath>
</defs>
</svg>
