<svg width="65" height="54" viewBox="0 0 65 54" fill="none" xmlns="http://www.w3.org/2000/svg">
<g clip-path="url(#clip0_7_1549)">
<path d="M25.5497 14.4199H28.6238V16.9738C28.6238 17.5927 29.2277 18.0944 29.9727 18.0944H35.0276C35.7726 18.0944 36.3765 17.5927 36.3765 16.9738V14.4199H39.4506C40.1956 14.4199 40.7995 13.9182 40.7995 13.2993V9.09982C40.7995 8.48093 40.1956 7.97922 39.4506 7.97922H36.3765V5.42529C36.3765 4.8064 35.7726 4.30469 35.0276 4.30469H29.9727C29.2277 4.30469 28.6238 4.8064 28.6238 5.42529V7.97922H25.5497C24.8047 7.97922 24.2008 8.48093 24.2008 9.09982V13.2993C24.2008 13.9182 24.8047 14.4199 25.5497 14.4199ZM26.8985 10.2204H29.9727C30.7177 10.2204 31.3216 9.71871 31.3216 9.09982V6.5459H33.6787V9.09982C33.6787 9.71871 34.2826 10.2204 35.0276 10.2204H38.1018V12.1787H35.0276C34.2826 12.1787 33.6787 12.6804 33.6787 13.2993V15.8532H31.3216V13.2993C31.3216 12.6804 30.7177 12.1787 29.9727 12.1787H26.8985V10.2204ZM45.7692 20.0526H19.2312C18.4862 20.0526 17.8823 20.5544 17.8823 21.1733V25.3727C17.8823 25.9916 18.4862 26.4933 19.2312 26.4933H45.7694C46.5143 26.4933 47.1182 25.9916 47.1182 25.3727V21.1733C47.1181 20.5545 46.5142 20.0526 45.7692 20.0526ZM44.4203 24.2521H20.5801V22.2939H44.4205L44.4203 24.2521ZM40.7145 28.4515H24.2861C23.5411 28.4515 22.9372 28.9533 22.9372 29.5722C22.9372 30.1909 23.5411 30.6928 24.2861 30.6928H40.7145C41.4594 30.6928 42.0633 30.1909 42.0633 29.5722C42.0633 28.9533 41.4593 28.4515 40.7145 28.4515Z" fill="#DC5461"/>
<path d="M64.3706 22.4309L53.4367 14.1015V1.22607C53.4367 0.607184 52.8327 0.105469 52.0878 0.105469H12.9124C12.1674 0.105469 11.5635 0.607184 11.5635 1.22607V14.1015C-0.0877248 22.9882 0.586523 22.434 0.432148 22.6172C0.268887 22.8119 0.190938 23.0346 0.190684 23.2551C0.190684 23.2562 0.19043 23.2572 0.19043 23.2583V50.6661C0.19043 51.6323 0.70332 52.5001 1.51328 53.0923C1.52928 53.1044 1.5454 53.1161 1.56178 53.1274C2.2378 53.6053 3.11187 53.8945 4.0658 53.8945H18.032C18.777 53.8945 19.3809 53.3928 19.3809 52.7739C19.3809 52.155 18.777 51.6533 18.032 51.6533H5.834L27.0361 39.3814C29.7148 40.9319 31.5405 41.9886 31.7289 42.0977C32.1916 42.3654 32.8068 42.3664 33.2711 42.0977C33.4595 41.9887 35.2852 40.9319 37.9639 39.3814L59.1662 51.6533H23.4275C22.6826 51.6533 22.0787 52.155 22.0787 52.7739C22.0787 53.3928 22.6827 53.8945 23.4275 53.8945H60.9343C61.8885 53.8945 62.7627 53.6051 63.4389 53.1269C63.455 53.1159 63.4707 53.1044 63.4863 53.0927C64.2967 52.5004 64.8097 51.6325 64.8097 50.6661V39.3726C64.8097 38.7538 64.2058 38.252 63.4608 38.252C62.7159 38.252 62.1119 38.7538 62.1119 39.3726V50.6268L40.3239 38.0157C43.0697 36.4264 59.5481 26.8886 62.1121 25.4045V34.8902C62.1121 35.5091 62.716 36.0108 63.4609 36.0108C64.2059 36.0108 64.8098 35.5091 64.8098 34.8902C64.8098 34.8726 64.8096 23.2395 64.8097 23.2552C64.8091 22.9271 64.6384 22.6345 64.3706 22.4309ZM61.3078 23.1386C59.6809 24.0802 56.7922 25.7521 53.4367 27.6943V17.1424L61.3078 23.1386ZM11.5635 27.6943C8.20803 25.7521 5.31933 24.0802 3.69243 23.1386L11.5635 17.1424V27.6943ZM2.88818 50.6268V25.4045C5.42966 26.8755 21.9483 36.4366 24.6764 38.0157L2.88818 50.6268ZM32.5001 39.8126C29.9322 38.3262 21.5481 33.4734 14.2613 29.2558V2.34668H50.7388V29.2558C43.4521 33.4734 35.068 38.3262 32.5001 39.8126Z" fill="#283954"/>
</g>
<defs>
<clipPath id="clip0_7_1549">
<rect width="65" height="54" fill="white"/>
</clipPath>
</defs>
</svg>
