<svg width="52" height="51" viewBox="0 0 52 51" fill="none" xmlns="http://www.w3.org/2000/svg">
<g clip-path="url(#clip0_120_13945)">
<path d="M19.4408 32.5814C19.9653 32.4459 20.4827 32.2853 20.9911 32.1001C21.0138 32.0922 21.0354 32.0766 21.0577 32.0667C21.5902 32.4686 22.0211 32.9855 22.317 33.5772C22.6129 34.1689 22.7658 34.8195 22.764 35.4785C22.765 35.6899 22.8517 35.8923 23.0049 36.0411C23.1581 36.1898 23.3653 36.2728 23.5809 36.2718C23.7965 36.2707 24.0029 36.1857 24.1546 36.0354C24.3062 35.8852 24.3909 35.682 24.3898 35.4705C24.3952 34.587 24.1951 33.7139 23.8046 32.9176C23.4142 32.1213 22.8438 31.4229 22.1367 30.8753C22.5464 30.0815 22.8665 29.2462 23.0914 28.3843C24.7156 21.6451 22.2017 16.8216 15.6205 14.0477C12.3156 12.6552 6.66102 10.7427 7.66974 6.17061C7.70559 6.00798 7.68863 5.83842 7.62125 5.68571C7.55386 5.53301 7.43942 5.40482 7.29399 5.31914C7.14856 5.23345 6.97943 5.19456 6.81032 5.20793C6.64122 5.22129 6.48062 5.28624 6.35105 5.39366C3.29402 7.92254 1.23637 10.2239 0.426304 13.8752C-0.130921 16.2213 -0.157414 18.6587 0.348689 21.016C0.854792 23.3732 1.88121 25.5932 3.35577 27.5197C6.00493 31.0487 10.5992 33.0918 15.3661 33.0918C16.741 33.0928 18.1103 32.921 19.4408 32.5814ZM4.66512 26.5754C3.32994 24.8297 2.4008 22.8185 1.94298 20.6829C1.48517 18.5474 1.5098 16.3395 2.01515 14.2143C2.59487 11.5993 3.94727 9.73504 5.93952 7.8831C6.37177 12.2727 11.4548 14.027 14.9782 15.5116C20.8899 18.003 22.9651 21.977 21.5095 28.0181C21.3253 28.6976 21.0782 29.3591 20.7713 29.9944C19.2617 29.1605 15.7574 27.036 13.6652 24.2489C13.5375 24.0786 13.3461 23.9651 13.133 23.9332C12.92 23.9013 12.7027 23.9538 12.5291 24.079C12.3555 24.2042 12.2397 24.3919 12.2072 24.6009C12.1747 24.8099 12.2282 25.0229 12.3558 25.1932C14.3534 27.8544 17.423 29.9027 19.254 30.9765C19.18 30.9969 19.1036 31.0212 19.0297 31.0403C14.5813 32.1794 8.18852 31.2682 4.66512 26.5754Z" fill="#4531AC" fill-opacity="0.75"/>
<path d="M47.8297 7.17825C45.0423 4.29108 41.2197 2.57972 37.1695 2.40574C33.1193 2.23176 29.1587 3.6088 26.1246 6.24591C26.0942 6.27178 26.0553 6.28603 26.0151 6.28603C25.9749 6.28603 25.936 6.27178 25.9056 6.24591C23.5436 4.19227 20.6023 2.88913 17.4698 2.50836C14.3373 2.1276 11.1606 2.6871 8.35889 4.11307C8.7247 4.3878 9.00336 4.75884 9.16239 5.18295C9.32142 5.60705 9.35427 6.06676 9.25711 6.50848C8.65992 9.21546 11.7104 10.7096 15.454 12.2488C15.7344 12.3643 16.0049 12.4759 16.2613 12.5835C20.8149 14.5023 23.6591 17.3962 24.721 21.1172H30.4288C30.5449 21.0661 30.647 20.9886 30.7266 20.8913L32.2066 14.8733C32.2706 14.6085 32.424 14.3728 32.6419 14.2044C32.8597 14.0359 33.1292 13.9446 33.4066 13.9453C33.6821 13.9552 33.9459 14.0567 34.1547 14.2331C34.3636 14.4095 34.505 14.6502 34.5559 14.9159L36.2723 23.9302L38.5912 17.7297C38.5993 17.7098 38.6074 17.689 38.6168 17.6699C38.7097 17.4625 38.8617 17.2857 39.0545 17.1611C39.2474 17.0364 39.4729 16.969 39.7039 16.9671H39.7043C39.9353 16.9687 40.1609 17.0359 40.3539 17.1603C40.5469 17.2848 40.6992 17.4614 40.7923 17.6687L42.1824 20.7984C42.2437 20.9143 42.3208 21.0214 42.4116 21.1168H51.5709C52.1786 18.6715 52.1547 16.1162 51.5014 13.6823C50.8482 11.2484 49.5862 9.01275 47.8297 7.17785V7.17825Z" fill="#4531AC" fill-opacity="0.75"/>
<path d="M40.7006 21.4527L39.7395 19.2892L37.2544 25.9327C37.2463 25.9534 37.2382 25.9733 37.2288 25.9933C37.1366 26.2003 36.9853 26.3767 36.7931 26.5013C36.6009 26.6258 36.3761 26.6932 36.1458 26.6953C36.1026 26.6954 36.0595 26.6931 36.0166 26.6885C35.7591 26.6585 35.5181 26.5489 35.3284 26.3755C35.1387 26.2022 35.0102 25.9741 34.9616 25.7243L33.3244 17.126L32.2953 21.3096C32.1613 21.6912 31.9175 22.0265 31.5934 22.2752C31.2693 22.5239 30.8787 22.6752 30.4688 22.7109H25.0576C25.3138 24.7302 25.1832 26.7786 24.6725 28.7508C24.5173 29.3483 24.3239 29.9355 24.0936 30.5092C25.346 31.865 26.032 33.6335 26.0151 35.4629C26.0167 35.7769 25.9551 36.0882 25.834 36.3788C25.7129 36.6695 25.5346 36.934 25.3092 37.157C25.0839 37.3801 24.816 37.5575 24.5207 37.6789C24.2255 37.8004 23.9088 37.8637 23.5886 37.8651H23.5805C22.936 37.8643 22.3179 37.6139 21.8607 37.1685C21.4034 36.723 21.144 36.1185 21.1389 35.4864C21.1449 34.9192 20.9652 34.3651 20.6262 33.9054C20.3654 33.9851 20.1074 34.058 19.8503 34.1234C18.3861 34.4973 16.8791 34.6861 15.3661 34.6852C13.62 34.6861 11.8831 34.438 10.21 33.9485L24.7444 48.105C25.0851 48.4287 25.5409 48.6098 26.0153 48.6098C26.4897 48.6098 26.9455 48.4287 27.2863 48.105L47.3063 28.6054C49.009 26.9477 50.3053 24.9321 51.0974 22.7109H42.2501C41.3068 22.7109 40.7246 21.5037 40.7006 21.4527Z" fill="#4531AC" fill-opacity="0.75"/>
</g>
<defs>
<clipPath id="clip0_120_13945">
<rect width="52" height="51" fill="white"/>
</clipPath>
</defs>
</svg>
