<svg width="80" height="54" viewBox="0 0 80 54" fill="none" xmlns="http://www.w3.org/2000/svg">
<g clip-path="url(#clip0_8_1560)">
<path d="M3.48291 46.9863V3.95508C3.48291 3.11592 3.97677 2.31112 4.85585 1.71775C5.73492 1.12437 6.92721 0.791016 8.17041 0.791016H57.2329C58.4761 0.791016 59.6684 1.12437 60.5475 1.71775C61.4265 2.31112 61.9204 3.11592 61.9204 3.95508V48.4629" fill="#6857C1"/>
<path d="M57.2329 0.791016H8.17041C7.26808 0.790905 6.38487 0.966592 5.62683 1.29698C4.86879 1.62738 4.26813 2.09843 3.89697 2.65359C4.50332 2.4685 5.16119 2.37285 5.82666 2.37305H56.4517C57.2805 2.37305 58.0753 2.59528 58.6614 2.99087C59.2474 3.38645 59.5767 3.92298 59.5767 4.48242V48.4038L61.9204 48.4629V3.95508C61.9204 3.11592 61.4265 2.31113 60.5475 1.71775C59.6684 1.12437 58.4761 0.791016 57.2329 0.791016Z" fill="#6857C1"/>
<path d="M9.34229 42.9785H61.9204V50.8887H9.34229C7.78828 50.8887 6.29793 50.472 5.19908 49.7303C4.10024 48.9885 3.48291 47.9825 3.48291 46.9336C3.48291 45.8846 4.10024 44.8787 5.19908 44.1369C6.29793 43.3952 7.78828 42.9785 9.34229 42.9785Z" fill="#E1E1E3"/>
<path d="M59.5767 42.9785H61.9204V50.8887H59.5767V42.9785Z" fill="#DADADC"/>
<path d="M22.6235 53.209L17.8579 51.0996L13.0923 53.209V46.7754H22.6235V53.209Z" fill="#FF00F3"/>
<path d="M20.2798 46.7754V52.1712L22.6235 53.209V46.7754H20.2798Z" fill="#FF00F3"/>
<path d="M32.8436 21.7099L35.6873 19.7904V15.8543H41.3764L44.2186 13.9347L41.3764 12.0152H35.6873V8.07912L32.8436 6.16064L29.9982 8.07912V12.0152H24.0264L21.1826 13.9347L24.0264 15.8543H29.9982V19.7904L32.8436 21.7099Z" fill="#FF00F3"/>
<path d="M41.3748 12.0148H35.6873V8.07871L32.8436 6.15918L30.7998 7.53766L33.4451 9.32324V12.1403C33.4455 12.4372 33.6205 12.7218 33.9317 12.9316C34.2428 13.1415 34.6647 13.2593 35.1045 13.2593H39.1342L41.9764 15.1789L40.9779 15.8539H41.3748L44.2186 13.9343L41.3748 12.0148Z" fill="#FF00F3"/>
<path d="M53.3423 27.6519H12.061C11.7502 27.6519 11.4522 27.5685 11.2324 27.4202C11.0126 27.2718 10.8892 27.0706 10.8892 26.8608C10.8892 26.651 11.0126 26.4499 11.2324 26.3015C11.4522 26.1532 11.7502 26.0698 12.061 26.0698H53.3423C53.6531 26.0698 53.9512 26.1532 54.1709 26.3015C54.3907 26.4499 54.5142 26.651 54.5142 26.8608C54.5142 27.0706 54.3907 27.2718 54.1709 27.4202C53.9512 27.5685 53.6531 27.6519 53.3423 27.6519ZM53.3423 31.3433H12.061C11.7502 31.3433 11.4522 31.2599 11.2324 31.1116C11.0126 30.9632 10.8892 30.762 10.8892 30.5522C10.8892 30.3425 11.0126 30.1413 11.2324 29.9929C11.4522 29.8446 11.7502 29.7612 12.061 29.7612H53.3423C53.6531 29.7612 53.9512 29.8446 54.1709 29.9929C54.3907 30.1413 54.5142 30.3425 54.5142 30.5522C54.5142 30.762 54.3907 30.9632 54.1709 31.1116C53.9512 31.2599 53.6531 31.3433 53.3423 31.3433Z" fill="#F9A242"/>
<path d="M26.7798 47.5664H8.93604C8.62523 47.5664 8.32716 47.4831 8.10739 47.3347C7.88763 47.1864 7.76416 46.9852 7.76416 46.7754C7.76416 46.5656 7.88763 46.3644 8.10739 46.2161C8.32716 46.0677 8.62523 45.9844 8.93604 45.9844H26.7798C27.0906 45.9844 27.3887 46.0677 27.6084 46.2161C27.8282 46.3644 27.9517 46.5656 27.9517 46.7754C27.9517 46.9852 27.8282 47.1864 27.6084 47.3347C27.3887 47.4831 27.0906 47.5664 26.7798 47.5664Z" fill="#6857C1"/>
<path d="M46.3735 35.0347H19.0298C18.719 35.0347 18.4209 34.9513 18.2011 34.803C17.9814 34.6546 17.8579 34.4534 17.8579 34.2437C17.8579 34.0339 17.9814 33.8327 18.2011 33.6843C18.4209 33.536 18.719 33.4526 19.0298 33.4526H46.3735C46.6843 33.4526 46.9824 33.536 47.2022 33.6843C47.4219 33.8327 47.5454 34.0339 47.5454 34.2437C47.5454 34.4534 47.4219 34.6546 47.2022 34.803C46.9824 34.9513 46.6843 35.0347 46.3735 35.0347Z" fill="#F9A242"/>
<path d="M66.617 35.4131L63.0842 36.0702L64.8873 38.7185C64.7019 39.0701 64.5165 39.4248 64.3311 39.7827C63.1311 42.0767 59.7373 43.5796 55.3545 43.7684C54.524 43.7917 53.6976 43.6773 52.9477 43.4351C52.1978 43.193 51.5473 42.8305 51.053 42.3794C48.5155 39.961 48.1248 37.2304 50.0155 35.1611C55.1686 29.5248 60.3196 23.8886 65.4686 18.2523C66.9733 16.607 69.5811 15.4447 72.8467 14.9649L72.9842 14.9448L73.0108 14.9775C74.6842 17.0742 75.0545 19.2806 74.0577 21.1875C71.5785 25.9308 69.0983 30.6727 66.617 35.4131Z" fill="#E1E1E3"/>
<path d="M73.0139 14.9765C73.0062 14.9652 72.9973 14.9543 72.9873 14.9438L72.8498 14.9639C72.2024 15.0591 71.5659 15.1852 70.9451 15.3415C72.3795 17.3274 72.6561 19.3894 71.717 21.1865C69.2357 25.9298 66.7545 30.6717 64.2732 35.4122L60.7404 36.0703L62.5436 38.7186C62.3581 39.0702 62.1727 39.4249 61.9873 39.7828C60.8857 41.8922 57.9342 43.3297 54.0654 43.6957C54.4878 43.7612 54.9219 43.7857 55.3545 43.7685C59.7373 43.5828 63.1311 42.081 64.3311 39.7828C64.5165 39.4312 64.7019 39.0765 64.8873 38.7186L63.0842 36.0703L66.617 35.4122C69.1003 30.671 71.5821 25.9295 74.0623 21.1876C75.0576 19.2807 74.6873 17.0743 73.0139 14.9765Z" fill="#C8C5CC"/>
<path d="M46.0204 54.0002C45.8223 54.0001 45.6276 53.9662 45.4543 53.9016C45.2809 53.8369 45.1347 53.7437 45.0292 53.6306C44.9237 53.5174 44.8624 53.3881 44.8511 53.2547C44.8397 53.1212 44.8786 52.988 44.9641 52.8675L65.2766 24.1958C65.4142 24.0105 65.654 23.8691 65.9445 23.802C66.2349 23.7348 66.5528 23.7473 66.8298 23.8367C67.1068 23.9261 67.3207 24.0853 67.4256 24.28C67.5305 24.4748 67.5179 24.6896 67.3907 24.8782L47.0782 53.5509C46.9828 53.6856 46.8328 53.7993 46.6456 53.8789C46.4583 53.9584 46.2416 54.0005 46.0204 54.0002Z" fill="#6857C1"/>
</g>
<defs>
<clipPath id="clip0_8_1560">
<rect width="80" height="54" fill="white"/>
</clipPath>
</defs>
</svg>
