<svg width="52" height="51" viewBox="0 0 52 51" fill="none" xmlns="http://www.w3.org/2000/svg">
<g clip-path="url(#clip0_7_1531)">
<path d="M19.4408 32.5817C19.9653 32.4461 20.4827 32.2855 20.9911 32.1003C21.0138 32.0924 21.0354 32.0768 21.0577 32.0669C21.5902 32.4688 22.0211 32.9857 22.317 33.5774C22.6129 34.1691 22.7658 34.8197 22.764 35.4787C22.765 35.6901 22.8517 35.8925 23.0049 36.0413C23.1581 36.1901 23.3653 36.273 23.5809 36.272C23.7965 36.2709 24.0029 36.1859 24.1546 36.0357C24.3062 35.8854 24.3909 35.6822 24.3898 35.4707C24.3952 34.5872 24.1951 33.7141 23.8046 32.9178C23.4142 32.1215 22.8438 31.4231 22.1367 30.8755C22.5464 30.0817 22.8665 29.2465 23.0914 28.3845C24.7156 21.6453 22.2017 16.8219 15.6205 14.0479C12.3156 12.6554 6.66102 10.7429 7.66974 6.17083C7.70559 6.00819 7.68863 5.83863 7.62125 5.68593C7.55386 5.53322 7.43942 5.40504 7.29399 5.31935C7.14856 5.23366 6.97943 5.19478 6.81032 5.20814C6.64122 5.22151 6.48062 5.28645 6.35105 5.39387C3.29402 7.92276 1.23637 10.2241 0.426304 13.8754C-0.130921 16.2216 -0.157414 18.6589 0.348689 21.0162C0.854792 23.3734 1.88121 25.5934 3.35577 27.5199C6.00493 31.0489 10.5992 33.0921 15.3661 33.0921C16.741 33.093 18.1103 32.9212 19.4408 32.5817ZM4.66512 26.5756C3.32994 24.83 2.4008 22.8187 1.94298 20.6832C1.48517 18.5476 1.5098 16.3397 2.01515 14.2145C2.59487 11.5995 3.94727 9.73525 5.93952 7.88331C6.37177 12.2729 11.4548 14.0272 14.9782 15.5118C20.8899 18.0032 22.9651 21.9772 21.5095 28.0184C21.3253 28.6978 21.0782 29.3593 20.7713 29.9946C19.2617 29.1607 15.7574 27.0362 13.6652 24.2491C13.5375 24.0788 13.3461 23.9653 13.133 23.9334C12.92 23.9015 12.7027 23.954 12.5291 24.0792C12.3555 24.2044 12.2397 24.3922 12.2072 24.6011C12.1747 24.8101 12.2282 25.0231 12.3558 25.1934C14.3534 27.8546 17.423 29.903 19.254 30.9767C19.18 30.9971 19.1036 31.0214 19.0297 31.0405C14.5813 32.1796 8.18852 31.2684 4.66512 26.5756Z" fill="#4531AC" fill-opacity="0.75"/>
<path d="M47.8297 7.17831C45.0423 4.29114 41.2197 2.57978 37.1695 2.4058C33.1193 2.23182 29.1587 3.60886 26.1246 6.24597C26.0942 6.27184 26.0553 6.28609 26.0151 6.28609C25.9749 6.28609 25.936 6.27184 25.9056 6.24597C23.5436 4.19234 20.6023 2.88919 17.4698 2.50842C14.3373 2.12766 11.1606 2.68716 8.35889 4.11313C8.7247 4.38786 9.00336 4.7589 9.16239 5.18301C9.32142 5.60712 9.35427 6.06682 9.25711 6.50854C8.65992 9.21552 11.7104 10.7097 15.454 12.2488C15.7344 12.3644 16.0049 12.4759 16.2613 12.5835C20.8149 14.5024 23.6591 17.3962 24.721 21.1172H30.4288C30.5449 21.0661 30.647 20.9887 30.7266 20.8913L32.2066 14.8733C32.2706 14.6086 32.424 14.3729 32.6419 14.2044C32.8597 14.036 33.1292 13.9447 33.4066 13.9454C33.6821 13.9553 33.9459 14.0568 34.1547 14.2331C34.3636 14.4095 34.505 14.6503 34.5559 14.916L36.2723 23.9302L38.5912 17.7297C38.5993 17.7098 38.6074 17.6891 38.6168 17.67C38.7097 17.4625 38.8617 17.2858 39.0545 17.1611C39.2474 17.0364 39.4729 16.9691 39.7039 16.9671H39.7043C39.9353 16.9688 40.1609 17.0359 40.3539 17.1604C40.5469 17.2849 40.6992 17.4614 40.7923 17.6688L42.1824 20.7985C42.2437 20.9144 42.3208 21.0215 42.4116 21.1168H51.5709C52.1786 18.6716 52.1547 16.1163 51.5014 13.6824C50.8482 11.2485 49.5862 9.01281 47.8297 7.17791V7.17831Z" fill="#4531AC" fill-opacity="0.75"/>
<path d="M40.7006 21.4526L39.7395 19.2891L37.2544 25.9326C37.2463 25.9534 37.2382 25.9733 37.2288 25.9932C37.1366 26.2002 36.9853 26.3766 36.7931 26.5012C36.6009 26.6258 36.3761 26.6932 36.1458 26.6952C36.1026 26.6953 36.0595 26.693 36.0166 26.6885C35.7591 26.6585 35.5181 26.5488 35.3284 26.3755C35.1387 26.2021 35.0102 25.974 34.9616 25.7243L33.3244 17.126L32.2953 21.3096C32.1613 21.6911 31.9175 22.0265 31.5934 22.2751C31.2693 22.5238 30.8787 22.6751 30.4688 22.7109H25.0576C25.3138 24.7301 25.1832 26.7786 24.6725 28.7508C24.5173 29.3482 24.3239 29.9355 24.0936 30.5091C25.346 31.8649 26.032 33.6335 26.0151 35.4629C26.0167 35.7769 25.9551 36.0881 25.834 36.3788C25.7129 36.6695 25.5346 36.9339 25.3092 37.157C25.0839 37.38 24.816 37.5574 24.5207 37.6789C24.2255 37.8004 23.9088 37.8636 23.5886 37.865H23.5805C22.936 37.8642 22.3179 37.6139 21.8607 37.1684C21.4034 36.7229 21.144 36.1184 21.1389 35.4864C21.1449 34.9191 20.9652 34.365 20.6262 33.9054C20.3654 33.9851 20.1074 34.058 19.8503 34.1233C18.3861 34.4972 16.8791 34.686 15.3661 34.6851C13.62 34.6861 11.8831 34.4379 10.21 33.9484L24.7444 48.1049C25.0851 48.4287 25.5409 48.6097 26.0153 48.6097C26.4897 48.6097 26.9455 48.4287 27.2863 48.1049L47.3063 28.6054C49.009 26.9476 50.3053 24.932 51.0974 22.7109H42.2501C41.3068 22.7109 40.7246 21.5036 40.7006 21.4526Z" fill="#4531AC" fill-opacity="0.75"/>
</g>
<defs>
<clipPath id="clip0_7_1531">
<rect width="52" height="51" fill="white"/>
</clipPath>
</defs>
</svg>
