<svg width="59" height="59" viewBox="0 0 59 59" fill="none" xmlns="http://www.w3.org/2000/svg">
<g filter="url(#filter0_d_3_848)">
<rect x="4" width="51" height="51" rx="14" fill="#9E8EF4" fill-opacity="0.54"/>
<path fill-rule="evenodd" clip-rule="evenodd" d="M37.8257 25.3093C38.2317 25.9204 38.4646 26.6285 38.5 27.3594L38.4734 27.5442C38.504 28.5445 38.1701 29.5223 37.533 30.2983C36.7193 31.1763 35.6069 31.7247 34.41 31.8381C31.4617 32.1617 28.4863 32.1617 25.538 31.8381C24.3585 31.717 23.2656 31.1687 22.4683 30.2983C21.8206 29.5334 21.4767 28.5603 21.5012 27.5618V27.4386C21.55 26.6858 21.8012 25.9596 22.2287 25.3357L22.2997 25.2477C22.7443 24.7473 23.0501 24.1409 23.1869 23.4879V22.7312V21.6753C23.3127 21.3574 23.6376 21.1625 23.9799 21.1996C24.3222 21.2366 24.597 21.4964 24.6508 21.8337V22.7136V23.6463C24.6542 23.6785 24.6542 23.7109 24.6508 23.7431C24.4661 24.6508 24.0438 25.4944 23.4264 26.1892C23.1887 26.5648 23.0541 26.9955 23.0361 27.4386V27.6322C23.0164 28.2554 23.2243 28.8647 23.6216 29.348C24.1725 29.9123 24.9091 30.2619 25.6977 30.3335C28.552 30.6415 31.4315 30.6415 34.2858 30.3335C35.096 30.2597 35.8506 29.8934 36.4062 29.304C36.784 28.8322 36.9819 28.2433 36.9651 27.641V27.4386C36.9469 26.994 36.8157 26.5612 36.5836 26.1804C35.9406 25.4935 35.4935 24.6492 35.2883 23.7343C35.2849 23.7021 35.2849 23.6697 35.2883 23.6375V22.696V21.8161C35.031 19.1588 32.3606 17.5134 30.0361 17.5134C29.0479 17.5112 28.0759 17.7628 27.2148 18.2437C26.9764 18.3859 26.6788 18.3881 26.4383 18.2494C26.1978 18.1108 26.0524 17.8533 26.0589 17.5775C26.0654 17.3017 26.2228 17.0512 26.4695 16.9239C27.5365 16.3261 28.7397 16.0081 29.9651 16C33.0348 16 36.4772 18.1645 36.8675 21.6401V22.6784V23.4527C37.0008 24.1069 37.307 24.7142 37.7548 25.2125C37.7813 25.2426 37.805 25.275 37.8257 25.3093ZM30.2515 34.4308C30.7729 34.3531 31.2415 34.0723 31.5532 33.6507H31.5621C31.8316 33.3275 32.3142 33.2822 32.64 33.5495C32.9659 33.8168 33.0116 34.2954 32.7421 34.6186C32.0777 35.4802 31.0499 35.9899 29.9563 36C28.8658 35.9872 27.8418 35.4778 27.1793 34.6186C26.9098 34.2954 26.9555 33.8168 27.2813 33.5495C27.6072 33.2822 28.0898 33.3275 28.3593 33.6507C28.4776 33.8076 28.6181 33.9469 28.7763 34.0642C29.1991 34.3765 29.7302 34.5084 30.2515 34.4308Z" fill="url(#paint0_linear_3_848)"/>
<circle cx="42" cy="13" r="3" fill="#FF4545"/>
</g>
<defs>
<filter id="filter0_d_3_848" x="0" y="0" width="59" height="59" filterUnits="userSpaceOnUse" color-interpolation-filters="sRGB">
<feFlood flood-opacity="0" result="BackgroundImageFix"/>
<feColorMatrix in="SourceAlpha" type="matrix" values="0 0 0 0 0 0 0 0 0 0 0 0 0 0 0 0 0 0 127 0" result="hardAlpha"/>
<feOffset dy="4"/>
<feGaussianBlur stdDeviation="2"/>
<feComposite in2="hardAlpha" operator="out"/>
<feColorMatrix type="matrix" values="0 0 0 0 0 0 0 0 0 0 0 0 0 0 0 0 0 0 0.25 0"/>
<feBlend mode="normal" in2="BackgroundImageFix" result="effect1_dropShadow_3_848"/>
<feBlend mode="normal" in="SourceGraphic" in2="effect1_dropShadow_3_848" result="shape"/>
</filter>
<linearGradient id="paint0_linear_3_848" x1="30.026" y1="17.25" x2="30.026" y2="41.5357" gradientUnits="userSpaceOnUse">
<stop stop-color="white"/>
<stop offset="1" stop-color="white" stop-opacity="0.9"/>
</linearGradient>
</defs>
</svg>
