<svg width="77" height="68" viewBox="0 0 77 68" fill="none" xmlns="http://www.w3.org/2000/svg">
<path d="M38.5 3.1875C19.2452 3.1875 3.60938 16.9958 3.60938 34C3.60938 51.0042 19.2452 64.8125 38.5 64.8125C57.7548 64.8125 73.3906 51.0042 73.3906 34C73.3906 16.9958 57.7548 3.1875 38.5 3.1875ZM38.5 5.3125C56.4554 5.3125 70.9844 18.1433 70.9844 34C70.9844 49.8568 56.4554 62.6875 38.5 62.6875C20.5446 62.6875 6.01562 49.8568 6.01562 34C6.01562 18.1433 20.5446 5.3125 38.5 5.3125ZM38.5 9.80262C23.3815 9.80262 11.1 20.6486 11.1 34C11.1 47.3514 23.3815 58.1974 38.5 58.1974C53.6185 58.1974 65.9 47.3514 65.9 34C65.9 20.6486 53.6185 9.80262 38.5 9.80262ZM38.5 11.9276C41.7828 11.9257 45.0339 12.4953 48.0673 13.6038C51.1007 14.7123 53.8568 16.3381 56.1782 18.3881C58.4995 20.4381 60.3404 22.8721 61.5957 25.551C62.851 28.2298 63.4959 31.1009 63.4937 34C63.4959 36.8991 62.851 39.7702 61.5957 42.449C60.3404 45.1279 58.4995 47.5619 56.1782 49.6119C53.8568 51.6619 51.1007 53.2877 48.0673 54.3962C45.0339 55.5047 41.7828 56.0743 38.5 56.0724C35.2172 56.0743 31.9661 55.5047 28.9327 54.3962C25.8993 53.2877 23.1432 51.6619 20.8218 49.6119C18.5005 47.5619 16.6596 45.1279 15.4043 42.449C14.149 39.7702 13.5041 36.8991 13.5063 34C13.5041 31.1009 14.149 28.2298 15.4043 25.551C16.6596 22.8721 18.5005 20.4381 20.8218 18.3881C23.1432 16.3381 25.8993 14.7123 28.9327 13.6038C31.9661 12.4953 35.2172 11.9257 38.5 11.9276ZM34.8906 18.0667V22.6036C32.3881 22.9415 30.0829 24.0656 28.7956 26.0355C28.0574 27.1664 27.6688 28.4489 27.6688 29.7542C27.6688 31.0596 28.0574 32.3421 28.7956 33.473C30.0829 35.4429 32.3857 36.567 34.8906 36.9049V39.3168H27.6719V45.6918H34.8906V49.9418H42.1094V45.4049C44.6119 45.0649 46.9123 43.9429 48.1996 41.973C48.9378 40.8421 49.3264 39.5596 49.3264 38.2543C49.3264 36.9489 48.9378 35.6664 48.1996 34.5355C46.9123 32.5656 44.6143 31.4415 42.1094 31.1036V28.6917H49.3281V22.3167H42.1094V18.0667H34.8906ZM37.2969 20.1917H39.7031V24.4417H46.9219V26.5667H39.7031V32.9417H40.9062C41.9614 32.9434 42.9976 33.19 43.9109 33.6567C44.8241 34.1235 45.5825 34.794 46.1099 35.6011C46.6373 36.4082 46.9152 37.3235 46.9158 38.2554C46.9164 39.1872 46.6397 40.1029 46.1134 40.9105C45.5852 41.7175 44.8262 42.3877 43.9122 42.8539C42.9983 43.3201 41.9617 43.5659 40.9062 43.5668H39.7031V47.8168H37.2969V43.5668H30.0781V41.4418H37.2969V35.0668H36.0938C33.9474 35.0668 31.955 34.051 30.8818 32.4105C30.3548 31.6026 30.0774 30.6866 30.0774 29.7542C30.0774 28.8219 30.3548 27.9059 30.8818 27.098C31.4111 26.291 32.1711 25.6209 33.0858 25.1547C34.0004 24.6885 35.0377 24.4427 36.0938 24.4417H37.2969V20.1917ZM36.0938 26.5667C34.8064 26.5667 33.6081 27.1745 32.9656 28.1605C32.6495 28.6453 32.4832 29.1949 32.4832 29.7542C32.4832 30.3136 32.6495 30.8632 32.9656 31.348C33.6081 32.334 34.8064 32.9417 36.0938 32.9417H37.2969V26.5667H36.0938ZM39.7031 35.0668V41.4418H40.9062C42.1936 41.4418 43.3895 40.8298 44.032 39.848C44.3481 39.3632 44.5144 38.8136 44.5144 38.2543C44.5144 37.6949 44.3481 37.1453 44.032 36.6605C43.7146 36.1764 43.2589 35.7744 42.7103 35.4947C42.1618 35.215 41.5397 35.0674 40.9062 35.0668H39.7031Z" fill="url(#paint0_linear_7_1555)"/>
<defs>
<linearGradient id="paint0_linear_7_1555" x1="3.60938" y1="34" x2="60.1563" y2="34" gradientUnits="userSpaceOnUse">
<stop stop-color="#000092"/>
<stop offset="1" stop-color="#FF00F3"/>
</linearGradient>
</defs>
</svg>
