<svg width="66" height="50" viewBox="0 0 66 50" fill="none" xmlns="http://www.w3.org/2000/svg">
<g clip-path="url(#clip0_7_1526)">
<path fill-rule="evenodd" clip-rule="evenodd" d="M10.957 18.75V9.27734H27.3281V18.75H10.957ZM52.7227 24.5117C50.2734 26.8555 49.8867 28.6133 50.2734 29.7852C51.6914 33.3984 60.9727 31.25 54.0117 24.5117C53.7539 24.2188 53.1094 24.2188 52.7227 24.5117ZM54.9141 29.3945C54.2695 31.25 49.1133 30.3711 53.3672 25.8789C54.9141 27.5391 55.3008 28.7109 54.9141 29.3945ZM18.5625 10.7422C15.9844 12.8906 15.4688 14.5508 15.8555 15.7227C17.1445 19.5313 27.457 17.3828 19.7227 10.7422C19.4648 10.4492 18.8203 10.4492 18.5625 10.7422ZM21.0117 15.4297C20.3672 17.2852 14.3086 16.6016 19.207 12.0117C20.7539 13.5742 21.1406 14.7461 21.0117 15.4297ZM10.957 19.9219H27.3281V21.9727C27.3281 23.1445 26.0391 24.1211 24.4922 24.1211C23.9766 24.1211 23.5898 24.1211 23.332 24.1211H14.8242C14.5664 24.1211 14.3086 24.1211 13.793 24.1211C12.2461 24.1211 10.957 23.1445 10.957 21.9727V19.9219ZM15.8555 25.293H22.5586C22.4297 25.8789 22.5586 26.7578 22.5586 27.9297C22.5586 28.125 22.4297 28.3203 22.3008 28.418C22.043 28.6133 21.7852 28.6133 21.5273 28.7109H21.3984H16.8867H16.7578H16.6289C16.1133 28.7109 15.7266 28.3203 15.7266 27.9297C15.7266 26.7578 15.8555 25.8789 15.8555 25.293ZM28.875 21.9727V6.15234C28.875 4.29688 26.9414 2.83203 24.4922 2.83203H23.7188C23.7188 1.95313 23.7188 1.17188 22.9453 0.585938C22.4297 0.195313 21.7852 0 21.1406 0H17.1445C15.7266 0 14.5664 0.878906 14.5664 1.95313C14.5664 2.24609 14.5664 2.53906 14.5664 2.83203H13.793C11.3438 2.83203 9.41016 4.29688 9.41016 6.15234V21.9727C9.41016 22.8516 9.92578 23.7305 10.6992 24.3164C11.7305 25.0977 12.7617 25.293 14.1797 25.293V27.9297C14.1797 28.8086 14.9531 29.5898 16.1133 29.7852V30.2734C16.1133 31.4453 17.0156 32.1289 18.1758 32.4219L18.0469 41.6992C18.0469 45.8984 21.9141 50 27.457 50C33.2578 50.1953 36.8672 45.5078 36.9961 41.6016L37.125 32.0313C38.543 31.9336 39.7031 30.957 39.7031 29.7852V23.2422C39.7031 22.0703 38.4141 20.9961 36.8672 20.9961L36.9961 11.9141C36.9961 8.30078 40.0898 4.6875 44.8594 4.6875C49.6289 4.49219 52.8516 8.69141 52.7227 11.9141L52.5938 21.582C52.5938 22.3633 54.1406 22.3633 54.1406 21.582L54.2695 11.9141C54.1406 7.71484 50.918 3.71094 44.8594 3.51563C39.3164 3.51563 35.4492 7.61719 35.4492 11.9141L35.3203 20.9961C34.5469 21.0938 33.9023 21.1914 33.2578 21.6797C32.3555 22.3633 32.3555 23.2422 32.3555 24.2188C31.582 24.4141 31.0664 24.8047 31.0664 25.5859V27.5391C31.0664 27.9297 31.1953 28.2227 31.582 28.5156C31.8398 28.7109 32.0977 28.8086 32.3555 28.9063C32.3555 29.8828 32.3555 30.7617 33.3867 31.4453C34.0312 31.9336 34.8047 32.0313 35.5781 32.0313L35.4492 41.6016C35.3203 45.2148 32.2266 48.8281 27.5859 48.8281C22.6875 49.0234 19.5938 44.9219 19.5938 41.6992C19.5938 41.6992 19.7227 34.5703 19.7227 32.4219C20.3672 32.4219 20.8828 32.1289 21.2695 31.8359C22.1719 31.1523 22.1719 30.5664 22.1719 29.7852C23.332 29.5898 24.1055 28.8086 24.1055 27.9297V25.293H24.4922C26.9414 25.293 28.875 23.8281 28.875 21.9727ZM35.9648 22.168C36.0938 22.168 36.0938 22.168 36.0938 22.168C36.9961 22.168 38.1562 22.2656 38.1562 23.2422V29.7852C38.1562 30.3711 37.5117 30.8594 36.7383 30.8594C33.9023 30.8594 33.9023 30.6641 33.9023 28.9063C34.8047 28.7109 35.3203 28.2227 35.3203 27.5391V25.5859C35.3203 24.8047 34.6758 24.4141 33.9023 24.2188C33.9023 23.3398 33.9023 22.168 35.4492 22.168C35.5781 22.168 35.707 22.168 35.9648 22.168ZM33.3867 25.293C33.6445 25.293 33.7734 25.3906 33.7734 25.5859C33.7734 28.0273 34.1602 27.7344 32.8711 27.7344C32.7422 27.7344 32.7422 27.7344 32.6133 27.7344C32.4844 27.5391 32.4844 25.4883 32.6133 25.3906C32.7422 25.3906 32.8711 25.293 33.1289 25.293C33.1289 25.293 33.2578 25.293 33.3867 25.293ZM27.3281 8.10547H10.957V6.15234C10.957 4.98047 12.2461 4.00391 13.793 4.00391H15.3398H22.9453H24.4922C26.0391 4.00391 27.3281 4.98047 27.3281 6.15234V8.10547ZM22.1719 2.83203H16.1133C16.1133 0.78125 16.2422 1.17188 21.1406 1.17188C21.3984 1.17188 21.6562 1.26953 21.9141 1.36719C22.3008 1.75781 22.1719 2.24609 22.1719 2.83203ZM17.6602 29.8828H20.625C20.625 30.4688 20.4961 31.3477 19.3359 31.3477C17.6602 31.3477 17.6602 30.5664 17.6602 29.8828Z" fill="url(#paint0_linear_7_1526)"/>
</g>
<defs>
<linearGradient id="paint0_linear_7_1526" x1="27.874" y1="0.0435549" x2="33.8177" y2="50.4643" gradientUnits="userSpaceOnUse">
<stop stop-color="#1E8AC6"/>
<stop offset="0.302" stop-color="#834FBC"/>
<stop offset="1" stop-color="#E813B1"/>
</linearGradient>
<clipPath id="clip0_7_1526">
<rect width="66" height="50" fill="white"/>
</clipPath>
</defs>
</svg>
