<svg width="25" height="25" viewBox="0 0 25 25" fill="none" xmlns="http://www.w3.org/2000/svg">
<path d="M12.457 2.875C17.9798 2.875 22.457 7.35215 22.457 12.875C22.457 18.3978 17.9798 22.875 12.457 22.875C6.93418 22.875 2.45703 18.3978 2.45703 12.875C2.45703 7.35215 6.93418 2.875 12.457 2.875ZM12.6167 16.875C10.5813 16.875 8.74885 17.7437 7.46979 19.1306C8.83742 20.2224 10.571 20.875 12.457 20.875C14.4265 20.875 16.2297 20.1633 17.6236 18.9831C16.3526 17.6824 14.5789 16.875 12.6167 16.875ZM12.457 4.875C8.03875 4.875 4.45703 8.45672 4.45703 12.875C4.45703 14.6856 5.05853 16.3557 6.0726 17.6964C7.71342 15.9591 10.0385 14.875 12.6167 14.875C15.1011 14.875 17.3503 15.8816 18.9788 17.5092C19.9096 16.2017 20.457 14.6023 20.457 12.875C20.457 8.45672 16.8753 4.875 12.457 4.875ZM12.457 5.875C14.6661 5.875 16.457 7.66586 16.457 9.875C16.457 12.0841 14.6661 13.875 12.457 13.875C10.2479 13.875 8.45703 12.0841 8.45703 9.875C8.45703 7.66586 10.2479 5.875 12.457 5.875ZM12.457 7.875C11.3524 7.875 10.457 8.77043 10.457 9.875C10.457 10.9796 11.3524 11.875 12.457 11.875C13.5616 11.875 14.457 10.9796 14.457 9.875C14.457 8.77043 13.5616 7.875 12.457 7.875Z" fill="black"/>
</svg>
