<svg width="25" height="25" viewBox="0 0 25 25" fill="none" xmlns="http://www.w3.org/2000/svg">
<path d="M12.1812 22.875C6.6583 22.875 2.18115 18.3978 2.18115 12.875C2.18115 7.35215 6.6583 2.875 12.1812 2.875C17.704 2.875 22.1812 7.35215 22.1812 12.875C22.1812 18.3978 17.704 22.875 12.1812 22.875ZM12.1812 20.875C16.5995 20.875 20.1812 17.2933 20.1812 12.875C20.1812 8.45672 16.5995 4.875 12.1812 4.875C7.76287 4.875 4.18115 8.45672 4.18115 12.875C4.18115 17.2933 7.76287 20.875 12.1812 20.875ZM13.1812 12.875H17.1812V14.875H11.1812V7.875H13.1812V12.875Z" fill="black"/>
</svg>
